<svg width="20" height="20" viewBox="0 0 20 20" fill="none" xmlns="http://www.w3.org/2000/svg">
<g id="icon_copy">
<g id="Group 769">
<path id="Vector" d="M11.3473 12.7379C11.42 12.739 11.4923 12.7255 11.5599 12.6984C11.6274 12.6712 11.6889 12.6309 11.7407 12.5798C11.7926 12.5287 11.8337 12.4678 11.8618 12.4006C11.8899 12.3334 11.9044 12.2613 11.9044 12.1885V5.54944C11.9044 5.47664 11.8899 5.40456 11.8618 5.3374C11.8337 5.27023 11.7926 5.20932 11.7407 5.15821C11.6889 5.10709 11.6274 5.06678 11.5599 5.03963C11.4923 5.01248 11.42 4.99903 11.3473 5.00005H4.71589C4.57019 5.00005 4.43045 5.05794 4.32742 5.16097C4.22439 5.264 4.1665 5.40374 4.1665 5.54944V12.1885C4.1665 12.3342 4.22439 12.474 4.32742 12.577C4.43045 12.68 4.57019 12.7379 4.71589 12.7379H11.3473Z" 
fill="currentColor"/>
<path id="Vector_2" d="M14.443 8.09527H12.6787V12.9005C12.6787 12.9808 12.6629 13.0603 12.6322 13.1344C12.6015 13.2086 12.5564 13.276 12.4997 13.3327C12.4429 13.3895 12.3755 13.4345 12.3014 13.4653C12.2272 13.496 12.1477 13.5118 12.0674 13.5118H7.26221V15.2838C7.2622 15.3566 7.27666 15.4286 7.30475 15.4958C7.33285 15.563 7.37401 15.6239 7.42585 15.675C7.47768 15.7261 7.53916 15.7664 7.60672 15.7936C7.67427 15.8207 7.74654 15.8342 7.81933 15.8331H14.4507C14.5964 15.8331 14.7361 15.7753 14.8392 15.6722C14.9422 15.5692 15.0001 15.4295 15.0001 15.2838V8.64466C15.0001 8.57186 14.9856 8.49978 14.9575 8.43261C14.9294 8.36545 14.8883 8.30454 14.8364 8.25342C14.7846 8.2023 14.7231 8.162 14.6556 8.13485C14.588 8.1077 14.5158 8.09424 14.443 8.09527Z" 
fill="currentColor"/>
</g>
</g>
</svg>
