<svg width="80" height="80" viewBox="0 0 80 80" fill="none" xmlns="http://www.w3.org/2000/svg">
<g id="icon_junp">
<mask id="mask0_378_3265" style="mask-type:alpha" maskUnits="userSpaceOnUse" x="0" y="0" width="80" height="80">
<rect id="Rectangle 839" width="80" height="80" fill="#93D514"/>
</mask>
<g mask="url(#mask0_378_3265)">
<path id="Vector" d="M29.3023 4.0002C30.257 4.0002 31.1727 4.37949 31.8478 5.05462C32.5229 5.72975 32.9022 6.64542 32.9022 7.6002C32.9022 8.55498 32.5229 9.47065 31.8478 10.1458C31.1727 10.8209 30.257 11.2002 29.3023 11.2002H14.7998C13.845 11.2002 12.9294 11.5795 12.2542 12.2546C11.5791 12.9297 11.1998 13.8454 11.1998 14.8002V65.2C11.1998 66.1548 11.5791 67.0705 12.2542 67.7456C12.9294 68.4207 13.845 68.8 14.7998 68.8H65.1986C66.1533 68.8 67.069 68.4207 67.7441 67.7456C68.4192 67.0705 68.7985 66.1548 68.7985 65.2V50.8C68.7985 49.8452 69.1778 48.9296 69.8529 48.2544C70.528 47.5793 71.4437 47.2 72.3984 47.2C73.3532 47.2 74.2688 47.5793 74.9439 48.2544C75.6191 48.9296 75.9983 49.8452 75.9983 50.8V65.2C75.9983 68.0643 74.8605 70.8114 72.8352 72.8368C70.8098 74.8622 68.0628 76 65.1986 76H14.7998C11.9355 76 9.18853 74.8622 7.16318 72.8368C5.13783 70.8114 4 68.0643 4 65.2V14.8002C4 11.9359 5.13783 9.18884 7.16318 7.16345C9.18853 5.13806 11.9355 4.0002 14.7998 4.0002H29.3023ZM72.9641 4.04134H73.1184C73.2408 4.0596 73.3613 4.08888 73.4784 4.1288H73.5298C73.6743 4.17037 73.8127 4.23089 73.9413 4.3088C74.0825 4.37268 74.2199 4.4448 74.3526 4.5248L74.5069 4.61733C74.6616 4.72377 74.8002 4.85196 74.9184 4.99794L74.8669 4.91047L74.9184 4.96194V4.99794L75.2269 5.29107L75.3298 5.44533C75.5316 5.75593 75.7038 6.08479 75.8441 6.4276V6.46367C75.8955 6.61793 75.8955 6.77733 75.9469 6.9368V7.08586C75.9884 7.25399 76.0057 7.42718 75.9983 7.6002V31.0002C75.9983 31.955 75.6191 32.8706 74.9439 33.5458C74.2688 34.2209 73.3532 34.6002 72.3984 34.6002C71.4437 34.6002 70.528 34.2209 69.8529 33.5458C69.1778 32.8706 68.7985 31.955 68.7985 31.0002V16.2915L42.519 42.5458C41.8683 43.1934 40.9948 43.5679 40.0771 43.5927C39.1594 43.6176 38.2669 43.2909 37.5821 42.6794L37.4278 42.5458C36.7685 41.8623 36.4001 40.9497 36.4001 40C36.4001 39.0504 36.7685 38.1378 37.4278 37.4543L63.7072 11.2001H48.999C48.0746 11.2013 47.1852 10.8468 46.515 10.2101C45.8449 9.57345 45.4453 8.70337 45.3991 7.78013V7.60013C45.3991 6.64535 45.7783 5.72968 46.4535 5.05455C47.1286 4.37942 48.0442 4.00013 48.999 4.00013H72.3984C72.5707 3.99849 72.7428 4.01225 72.9127 4.04126H72.9641V4.04134Z" 
fill="currentColor"/>
</g>
</g>
</svg>
