<svg width="24" height="24" viewBox="0 0 24 24" fill="none" xmlns="http://www.w3.org/2000/svg">
<g id="icon_user_myprofile">
<mask id="mask0_587_16856" style="mask-type:alpha" maskUnits="userSpaceOnUse" x="0" y="0" width="24" height="24">
<rect id="Rectangle 208" width="24" height="24" fill="#D9D9D9"/>
</mask>
<g mask="url(#mask0_587_16856)">
<path id="Vector" d="M12 2C6.47143 2 2 6.47143 2 12C2 17.5286 6.47143 22 12 22C17.5286 22 22 17.5286 22 12C22 6.47143 17.5286 2 12 2ZM12 6.42857C13.5 6.42857 14.7143 7.64286 14.7143 9.14286C14.7143 10.6429 13.5 11.8571 12 11.8571C10.5 11.8571 9.28571 10.6429 9.28571 9.14286C9.28571 7.64286 10.5 6.42857 12 6.42857ZM6.22857 17.9429C6.22857 16.3429 6.87143 14.9143 7.91429 13.8571C8.95714 12.8143 10.4143 12.1714 12 12.1714C13.5857 12.1714 15.0429 12.8143 16.0857 13.8571C17.1286 14.9143 17.7714 16.3429 17.7714 17.9429H6.22857Z" 
fill="currentColor"/>
</g>
</g>
</svg>
