<svg width="24" height="24" viewBox="0 0 24 24" fill="none" xmlns="http://www.w3.org/2000/svg">
<g id="icon_setting">
<mask id="mask0_587_17371" style="mask-type:alpha" maskUnits="userSpaceOnUse" x="0" y="0" width="24" height="24">
<rect id="Rectangle 583" width="24" height="24" fill="#D9D9D9"/>
</mask>
<g mask="url(#mask0_587_17371)">
</g>
<g id="Frame">
<path id="Vector" d="M19.8918 13.7064L18.4504 14.0305C18.3423 14.3907 18.1891 14.7329 18.0179 15.066L18.8017 16.3717C19.09 16.8399 19.2431 17.5243 18.8017 17.9655L18.0089 18.7579C17.7927 18.965 17.5134 19.073 17.2161 19.064C16.9188 19.064 16.6125 18.965 16.3783 18.8119L15.108 18.0015C14.7747 18.1726 14.4324 18.3167 14.081 18.4337L13.7567 19.8924C13.6576 20.4237 13.1891 21 12.5675 21H11.4414C10.8198 21 10.4414 20.4147 10.3153 19.8744L9.95492 18.4337C9.57654 18.3167 9.20717 18.1546 8.85582 17.9745L7.55853 18.8029C7.31529 18.965 7.01799 19.055 6.7207 19.055C6.4234 19.064 6.14413 18.956 5.92791 18.7489L5.13512 17.9565C4.69368 17.5153 4.84684 16.8309 5.13512 16.3627L5.95494 14.994C5.80179 14.6788 5.66665 14.3637 5.55854 14.0305L4.11711 13.7064C3.57657 13.6073 3 13.1391 3 12.5178V11.3922C3 10.7709 3.58558 10.3927 4.12612 10.2666L5.58557 9.90645C5.68467 9.6003 5.81079 9.30315 5.95494 9.006L5.13512 7.63732C4.84684 7.16908 4.69368 6.48474 5.13512 6.04352L5.92791 5.25113C6.14413 5.03502 6.43241 4.94497 6.7207 4.94497C7.01799 4.94497 7.3243 5.04402 7.55853 5.1971L8.85582 6.02551C9.20717 5.83642 9.57654 5.68334 9.95492 5.56628L10.3153 4.12556C10.4414 3.58529 10.8198 3 11.4414 3H12.5675C13.1891 3 13.6576 3.57629 13.7567 4.11656L14.081 5.58429C14.4324 5.70135 14.7747 5.84542 15.099 6.0075L16.3693 5.1971C16.5945 5.04402 16.9008 4.94497 17.2071 4.94497C17.5044 4.93597 17.7927 5.04402 17.9999 5.25113L18.7927 6.04352C19.2341 6.48474 19.081 7.16908 18.7927 7.63732L18.0089 8.94297C18.1621 9.24912 18.3062 9.57329 18.4143 9.90645L19.8738 10.2666C20.4143 10.3927 20.9999 10.7709 20.9999 11.3922V12.5178C21.0089 13.1391 20.4233 13.6073 19.8918 13.7064ZM12.018 9.27614C10.5135 9.27614 9.29726 10.4917 9.29726 11.9865C9.29726 13.4902 10.5135 14.7059 12.018 14.7059C13.5225 14.7059 14.7387 13.4902 14.7387 11.9865C14.7387 10.4917 13.5225 9.27614 12.018 9.27614Z" fill="white"/>
</g>
</g>
</svg>
