<svg width="24" height="24" viewBox="0 0 24 24" fill="none" xmlns="http://www.w3.org/2000/svg">
<g id="icon_yaoqing">
<mask id="mask0_587_17359" style="mask-type:alpha" maskUnits="userSpaceOnUse" x="0" y="0" width="24" height="24">
<rect id="Rectangle 918" width="24" height="24" fill="#D9D9D9"/>
</mask>
<g mask="url(#mask0_587_17359)">
<path id="Vector" d="M18.8352 11.8507C18.8324 10.3019 19.9562 9.0208 21.4367 8.75882C21.765 8.70125 21.9972 8.40473 21.9972 8.06502V6.41832C21.9972 5.77634 21.7481 5.16027 21.3036 4.70541C20.8564 4.25343 20.2506 3.99434 19.6193 4.00009H5.375C4.74374 4.00009 4.13796 4.25343 3.69353 4.70541C3.24911 5.16027 3 5.77634 3 6.41832V8.06502C3 8.41048 3.24911 8.70125 3.58313 8.7617C5.05229 9.03232 6.16478 10.3134 6.16478 11.8507C6.16478 13.3851 5.05229 14.6633 3.58313 14.9368C3.24911 14.9973 3 15.288 3 15.6335V17.2802C3 17.9193 3.24911 18.5354 3.69353 18.9902C4.14079 19.4451 4.74657 19.7013 5.37783 19.6956H19.625C20.2563 19.6956 20.862 19.4422 21.3036 18.9902C21.7509 18.5354 22 17.9193 22 17.2802V15.6335C22 15.288 21.7509 14.9973 21.4169 14.9368C19.9477 14.6633 18.8352 13.3851 18.8352 11.8507ZM16.5395 14.3726C16.4093 14.5021 16.2338 14.5827 16.0384 14.5827H8.96156C8.57092 14.5827 8.25387 14.2603 8.25387 13.863C8.25387 13.6644 8.33313 13.483 8.46052 13.3535C8.59073 13.2239 8.76624 13.1433 8.96156 13.1433H16.0384C16.4291 13.1433 16.7461 13.4657 16.7461 13.863C16.7461 14.0617 16.6669 14.243 16.5395 14.3726ZM16.5395 10.3422C16.4093 10.4717 16.2338 10.5523 16.0384 10.5523H8.96156C8.57092 10.5523 8.25387 10.2299 8.25387 9.83263C8.25387 9.63399 8.33313 9.45263 8.46052 9.32308C8.59073 9.19353 8.76624 9.11292 8.96156 9.11292H16.0384C16.4291 9.11292 16.7461 9.43535 16.7461 9.83263C16.7461 10.0313 16.6669 10.2126 16.5395 10.3422Z" fill="white"/>
</g>
</g>
</svg>
