<svg width="60" height="60" viewBox="0 0 60 60" fill="none" xmlns="http://www.w3.org/2000/svg">
<g id="icon_ab">
<path id="Vector" d="M28.401 0.456672C27.8411 0.756586 26.3591 1.59885 25.1094 2.33114C23.8598 3.06093 20.1208 5.23031 16.8018 7.14726C13.2232 9.21373 9.64923 11.2881 6.07986 13.3705C3.25067 15.0075 3.56558 13.3455 3.51559 26.8366C3.4906 33.1648 3.52809 38.3458 3.59557 38.3458C3.66305 38.3458 4.27038 37.4811 4.94268 36.4239C5.61499 35.3692 7.19204 32.9174 8.44668 30.9779C9.70132 29.0385 11.9957 25.4795 13.5452 23.0627C16.7018 18.1541 17.1942 17.5568 18.7612 16.7795C20.7457 15.7973 24.862 15.3149 27.5762 15.7473L28.2385 15.8548L26.3341 18.9089C20.6115 28.0882 14.8898 37.2681 9.16897 46.4485C7.48945 49.1377 6.15734 51.4071 6.20732 51.4896C6.31229 51.657 8.34671 52.8417 8.53166 52.8417C8.59414 52.8417 8.91905 52.3843 9.24895 51.8245C9.57886 51.2646 11.1784 48.6179 12.8029 45.9461C14.4275 43.2719 16.6468 39.6055 17.7415 37.7985C18.8337 35.9865 21.0331 32.355 22.6276 29.7258C24.4955 26.6439 26.3624 23.5614 28.2285 20.4784C29.149 18.9371 30.0888 17.4074 31.0477 15.8898C31.1102 15.8248 33.3895 15.7898 36.1138 15.8148L41.0673 15.8548L40.2776 17.1869L38.1982 20.7109C36.0946 24.2903 33.9902 27.8693 31.885 31.4478C31.1502 32.6974 30.3554 34.0396 30.118 34.4269C28.7484 36.6613 18.6638 53.8964 18.7062 53.9264C20.7643 55.0947 22.8187 56.2694 24.8695 57.4504C29.6831 60.2171 29.9555 60.3145 31.0627 59.6372C31.3626 59.4548 33.2696 58.3526 35.294 57.1929C39.7602 54.6337 39.5278 54.8261 39.0904 54.0438C38.903 53.7114 38.8005 53.3815 38.863 53.3115C38.9255 53.2416 38.898 53.2316 38.798 53.2865C38.698 53.344 38.5781 53.3015 38.5281 53.1941C38.3906 52.9067 37.7783 51.9444 36.1363 49.4526C35.7614 48.8778 35.4514 48.333 35.4514 48.238C35.4514 48.1405 35.3965 48.063 35.3315 48.063C35.174 48.063 34.1443 46.341 34.1443 46.0811C34.1443 45.9711 34.0943 45.9112 34.0344 45.9486C33.9244 46.0186 32.9422 44.5441 32.9422 44.3091C32.9422 44.2391 32.8347 44.0917 32.6997 43.9817C32.5673 43.8717 32.4973 43.6818 32.5423 43.5618C32.5873 43.4419 32.5673 43.3794 32.4948 43.4244C32.4223 43.4694 31.8475 42.6896 31.2202 41.6949C30.4029 40.3977 30.1305 39.8454 30.2704 39.7604C30.3754 39.6954 30.4529 39.5805 30.4429 39.503C30.4254 39.3805 31.2926 37.881 33.9644 33.4072C34.3243 32.8049 34.8466 31.9052 35.124 31.4078C35.404 30.913 35.6914 30.5081 35.7639 30.5081C35.9388 30.5081 37.3834 32.8249 37.3834 33.1023C37.3834 33.2198 37.4359 33.2823 37.5009 33.2448C37.6008 33.1823 37.9382 33.6797 38.663 34.9368C38.748 35.0893 39.4128 36.1365 40.1376 37.2661C40.8649 38.3908 41.4597 39.4105 41.4597 39.528C41.4597 39.6455 41.5247 39.7029 41.6072 39.653C41.6922 39.598 41.7097 39.7129 41.6497 39.9329C41.5747 40.1953 41.5872 40.2403 41.6947 40.0853C41.8121 39.9154 41.9046 39.9829 42.1145 40.3977C42.2645 40.6902 42.5044 41.0725 42.6519 41.245C42.8018 41.4174 43.1268 41.8998 43.3792 42.3197C44.069 43.4719 44.4989 44.1567 45.1287 45.1139C45.3536 45.4538 45.4636 45.7762 45.3936 45.8987C45.3286 46.0111 45.3311 46.0511 45.4011 45.9886C45.5686 45.8387 46.2833 46.8084 46.1584 47.0133C46.1034 47.0983 46.1309 47.1283 46.2159 47.0733C46.3008 47.0233 46.7082 47.5457 47.1181 48.238C48.1128 49.9075 48.0279 49.8925 49.8273 48.7478L50.6446 48.228L49.8273 46.8909C48.0853 44.0442 47.8504 43.6168 47.9429 43.4669C47.9929 43.3819 47.9629 43.3594 47.8679 43.4169C47.7704 43.4769 47.488 43.142 47.1906 42.6171C46.9264 42.1468 46.6421 41.6882 46.3383 41.2425C45.7188 40.2895 45.1205 39.3229 44.5438 38.3433C43.7441 37.0087 42.9193 35.6541 42.7044 35.3367C42.4769 34.9968 42.3645 34.6744 42.4345 34.5544C42.5019 34.4394 42.4944 34.402 42.4245 34.4669C42.212 34.6569 39.9327 31.0504 40.0976 30.7855C40.1551 30.693 40.1301 30.6605 40.0426 30.7155C39.9552 30.768 39.6927 30.4806 39.4578 30.0732C38.7805 28.8985 37.9882 27.6264 37.7883 27.399C37.5908 27.1715 37.8108 26.6842 38.8255 25.0996C39.1004 24.6697 39.4553 24.0924 39.6128 23.8175C39.7677 23.5426 39.9502 23.3476 40.0126 23.3876C40.0776 23.4276 40.1826 23.3776 40.2451 23.2776C40.3151 23.1627 40.2901 23.1352 40.1776 23.2052C40.0776 23.2676 39.9951 23.2751 39.9951 23.2227C39.9951 23.1077 41.4297 20.5884 41.5597 20.4784C41.6097 20.4335 41.8246 20.0636 42.0371 19.6537C42.4095 18.9414 42.7619 18.7439 42.7194 19.2738C42.7069 19.4112 42.7544 19.5087 42.8243 19.4912C42.9243 19.4662 44.6988 21.978 44.6988 22.148C44.6988 22.173 45.1112 22.8128 45.6135 23.5676C46.1184 24.3248 46.8757 25.492 47.3006 26.1668C47.7229 26.8366 48.6002 28.2137 49.25 29.2234C49.8998 30.2306 50.5996 31.3378 50.8071 31.6827C51.017 32.0276 51.2319 32.345 51.2844 32.39C51.3394 32.4325 51.5194 32.7149 51.6843 33.0149C51.8493 33.3148 52.0742 33.6522 52.1842 33.7696C52.3716 33.9696 52.4391 34.2045 52.3941 34.4769C52.3791 34.5494 52.4316 34.5694 52.5041 34.5244C52.579 34.4794 53.3713 35.5991 54.2661 37.0187C55.1633 38.4333 55.9331 39.5055 55.9781 39.4005C56.0231 39.2931 56.0281 33.7596 55.9831 27.104L55.9081 15L55.5157 14.6101C55.3008 14.3977 53.1139 13.0681 50.6571 11.6585C38.3481 4.59299 34.1168 2.15869 32.3973 1.15897C30.063 -0.20064 29.7431 -0.255624 28.3985 0.459172L28.401 0.456672ZM46.7382 49.8475C46.7382 49.8825 46.8482 49.9525 46.9806 50.0025C47.1206 50.0575 47.1831 50.03 47.1306 49.9425C47.0356 49.7925 46.7382 49.7201 46.7382 49.8475Z" fill="#359DE9"/>
</g>
</svg>
