<svg width="160" height="160" viewBox="0 0 160 160" fill="none" xmlns="http://www.w3.org/2000/svg">
<g id="Frame">
<path id="Vector" d="M73.0687 1.21812C71.5758 2.01789 67.6236 4.26391 64.2912 6.21669C60.9588 8.1628 50.9883 13.9478 42.1375 19.0597C32.5946 24.5703 23.064 30.102 13.5457 35.6549C6.00119 40.0203 6.84095 35.5883 6.70765 71.5647C6.64101 88.4398 6.74098 102.256 6.92092 102.256C7.10087 102.256 8.72041 99.9499 10.5132 97.1307C12.306 94.3181 16.5115 87.78 19.8572 82.6082C23.2029 77.4363 29.3212 67.9457 33.4533 61.5009C41.8709 48.4113 43.1839 46.8184 47.3627 44.7457C52.6545 42.1264 63.6314 40.8401 70.8693 41.9931L72.6355 42.2797L67.5569 50.424C52.2967 74.9022 37.0388 99.3819 21.7833 123.863C17.3046 131.034 13.7523 137.086 13.8856 137.306C14.1655 137.752 19.5906 140.911 20.0838 140.911C20.2504 140.911 21.1169 139.692 21.9966 138.199C22.8764 136.706 27.1418 129.648 31.4739 122.523C35.806 115.392 41.7243 105.615 44.6435 100.796C47.556 95.9643 53.421 86.2804 57.6731 79.2691C62.654 71.0507 67.6325 62.8308 72.6088 54.6095C75.0633 50.4993 77.5695 46.4202 80.1266 42.373C80.2933 42.1997 86.3715 42.1064 93.6361 42.1731L106.846 42.2797L104.74 45.832L99.1945 55.2293C93.585 64.7746 87.9733 74.3185 82.3593 83.8611C80.3999 87.1935 78.2805 90.7725 77.6473 91.8055C73.9951 97.7638 47.1028 143.724 47.2161 143.804C52.7041 146.92 58.1826 150.052 63.6514 153.201C76.4877 160.579 77.2141 160.839 80.1666 159.033C80.9664 158.546 86.0516 155.607 91.4501 152.515C103.36 145.69 102.74 146.203 101.574 144.117C101.074 143.231 100.801 142.351 100.967 142.164C101.134 141.978 101.061 141.951 100.794 142.098C100.527 142.251 100.208 142.138 100.074 141.851C99.7077 141.085 98.0748 138.519 93.6961 131.874C92.6964 130.341 91.8699 128.888 91.8699 128.635C91.8699 128.375 91.7233 128.168 91.55 128.168C91.1302 128.168 88.3843 123.576 88.3843 122.883C88.3843 122.59 88.251 122.43 88.091 122.53C87.7978 122.717 85.1785 118.784 85.1785 118.158C85.1785 117.971 84.8919 117.578 84.532 117.285C84.1788 116.992 83.9922 116.485 84.1122 116.165C84.2321 115.845 84.1788 115.679 83.9855 115.799C83.7923 115.919 82.2594 113.839 80.5865 111.187C78.4071 107.728 77.6807 106.255 78.0539 106.028C78.3338 105.855 78.5404 105.548 78.5138 105.342C78.4671 105.015 80.7798 101.016 87.9044 89.0863C88.8641 87.4801 90.2571 85.0808 90.9969 83.7545C91.7433 82.4349 92.5098 81.3552 92.703 81.3552C93.1696 81.3552 97.0218 87.5334 97.0218 88.2732C97.0218 88.5864 97.1618 88.7531 97.335 88.6531C97.6016 88.4865 98.5014 89.8128 100.434 93.1651C100.661 93.5717 102.434 96.3642 104.366 99.3767C106.306 102.376 107.892 105.095 107.892 105.408C107.892 105.722 108.065 105.875 108.285 105.742C108.512 105.595 108.559 105.901 108.399 106.488C108.199 107.188 108.232 107.308 108.519 106.895C108.832 106.441 109.078 106.621 109.638 107.728C110.038 108.507 110.678 109.527 111.071 109.987C111.471 110.447 112.337 111.733 113.011 112.853C114.85 115.925 115.996 117.751 117.676 120.304C118.276 121.21 118.569 122.07 118.382 122.397C118.209 122.697 118.216 122.803 118.402 122.637C118.849 122.237 120.755 124.823 120.422 125.369C120.275 125.596 120.348 125.676 120.575 125.529C120.802 125.396 121.888 126.789 122.981 128.635C125.634 133.087 125.407 133.047 130.206 129.995L132.385 128.608L130.206 125.043C125.56 117.452 124.934 116.312 125.18 115.912C125.314 115.685 125.234 115.625 124.98 115.779C124.721 115.939 123.967 115.046 123.174 113.646C122.47 112.392 121.712 111.169 120.902 109.98C119.25 107.439 117.654 104.861 116.116 102.249C113.984 98.6902 111.784 95.0779 111.211 94.2315C110.605 93.3251 110.305 92.4653 110.491 92.1454C110.671 91.8388 110.651 91.7389 110.465 91.9122C109.898 92.4187 103.82 82.8014 104.26 82.095C104.413 81.8484 104.346 81.7617 104.113 81.9083C103.88 82.0483 103.18 81.2819 102.554 80.1955C100.747 77.0631 98.6347 73.6707 98.1015 73.0642C97.575 72.4577 98.1615 71.1581 100.867 66.9326C101.6 65.7863 102.547 64.2467 102.967 63.5136C103.38 62.7805 103.867 62.2606 104.033 62.3673C104.206 62.4739 104.486 62.3406 104.653 62.074C104.84 61.7675 104.773 61.6941 104.473 61.8808C104.206 62.0474 103.986 62.0674 103.986 61.9274C103.986 61.6208 107.812 54.9028 108.159 54.6095C108.292 54.4895 108.865 53.5032 109.432 52.4101C110.425 50.5107 111.364 49.9842 111.251 51.3971C111.218 51.7637 111.344 52.0236 111.531 51.9769C111.798 51.9103 116.53 58.6084 116.53 59.0616C116.53 59.1282 117.629 60.8344 118.969 62.8471C120.315 64.8666 122.335 67.979 123.468 69.7785C124.594 71.5647 126.933 75.2369 128.666 77.9295C130.399 80.6154 132.265 83.5679 132.818 84.4876C133.378 85.4073 133.951 86.2538 134.091 86.3737C134.238 86.487 134.718 87.2402 135.158 88.0399C135.597 88.8397 136.197 89.7394 136.491 90.0527C136.99 90.5859 137.17 91.2124 137.05 91.9388C137.01 92.1321 137.15 92.1854 137.344 92.0654C137.544 91.9455 139.656 94.9313 142.042 98.7169C144.435 102.489 146.488 105.348 146.608 105.068C146.728 104.782 146.741 90.026 146.621 72.2778L146.421 40.0004L145.375 38.9606C144.801 38.3941 138.97 34.8485 132.418 31.0896C99.5944 12.2483 88.311 5.75682 83.7256 3.09092C77.5007 -0.534714 76.6476 -0.681338 73.062 1.22478L73.0687 1.21812ZM121.968 132.927C121.968 133.02 122.261 133.207 122.614 133.34C122.988 133.487 123.154 133.414 123.014 133.18C122.761 132.78 121.968 132.587 121.968 132.927Z" fill="#359DE9"/>
</g>
</svg>
